<svg width="1024" height="1024" viewBox="0 0 1024 1024" fill="none" xmlns="http://www.w3.org/2000/svg">
<g clip-path="url(#clip0_3_139)">
<path d="M579.731 802C547.852 802 521.924 774.377 521.924 740.427V270.573C521.924 262.199 516.428 256.364 511.5 256.364C506.572 256.364 501.076 262.199 501.076 270.573V740.427C501.076 774.377 475.148 802 443.269 802C411.39 802 385.462 774.377 385.462 740.427V372.88C385.462 364.506 379.966 358.671 375.038 358.671C370.11 358.671 364.614 364.506 364.614 372.88V604.018C364.614 637.968 338.686 665.591 306.807 665.591C274.928 665.591 249 637.968 249 604.018V492.238C249 458.287 276.634 430.665 310.597 430.665C312.91 430.665 315.108 431.006 317.231 431.612V372.88C317.231 338.93 343.159 311.307 375.038 311.307C406.917 311.307 432.845 338.93 432.845 372.88V740.427C432.845 748.801 438.341 754.636 443.269 754.636C448.197 754.636 453.693 748.801 453.693 740.427V270.573C453.693 236.623 479.621 209 511.5 209C543.379 209 569.307 236.623 569.307 270.573V740.427C569.307 748.801 574.803 754.636 579.731 754.636C584.659 754.636 590.155 748.801 590.155 740.427V372.88C590.155 338.93 616.083 311.307 647.962 311.307C679.841 311.307 705.769 338.93 705.769 372.88V431.612C707.892 431.006 710.09 430.665 712.403 430.665C746.366 430.665 774 458.287 774 492.238V604.018C774 637.968 748.072 665.591 716.193 665.591C684.314 665.591 658.386 637.968 658.386 604.018V372.88C658.386 364.506 652.89 358.671 647.962 358.671C643.034 358.671 637.538 364.506 637.538 372.88V740.427C637.538 774.377 611.61 802 579.731 802ZM705.769 477.081V604.018C705.769 612.392 711.265 618.227 716.193 618.227C721.121 618.227 726.617 612.392 726.617 604.018V492.238C726.617 484.546 720.097 478.029 712.403 478.029C710.09 478.029 707.892 477.688 705.769 477.081ZM317.231 477.081C315.108 477.688 312.91 478.029 310.597 478.029C302.903 478.029 296.383 484.546 296.383 492.238V604.018C296.383 612.392 301.879 618.227 306.807 618.227C311.735 618.227 317.231 612.392 317.231 604.018V477.081Z" fill="url(#paint0_linear_3_139)"/>
</g>
<defs>
<linearGradient id="paint0_linear_3_139" x1="511.5" y1="802" x2="511.5" y2="209" gradientUnits="userSpaceOnUse">
<stop stop-color="#6510F4"/>
<stop offset="0.98" stop-color="#0DFF00"/>
</linearGradient>
<clipPath id="clip0_3_139">
<rect width="525" height="593" fill="white" transform="translate(249 209)"/>
</clipPath>
</defs>
</svg>
