<svg width="800" height="800" viewBox="0 0 800 800" fill="none" xmlns="http://www.w3.org/2000/svg">
<rect width="800" height="800" fill="black"/>
<g clip-path="url(#clip0_2253_4006)">
<path d="M457.074 650C430.174 650 408.296 626.709 408.296 598.083V201.917C408.296 194.856 403.658 189.936 399.5 189.936C395.342 189.936 390.704 194.856 390.704 201.917V598.083C390.704 626.709 368.826 650 341.926 650C315.026 650 293.148 626.709 293.148 598.083V288.179C293.148 281.118 288.51 276.198 284.352 276.198C280.194 276.198 275.556 281.118 275.556 288.179V483.067C275.556 511.693 253.678 534.984 226.778 534.984C199.878 534.984 178 511.693 178 483.067V388.818C178 360.192 201.317 336.901 229.977 336.901C231.928 336.901 233.783 337.188 235.574 337.7V288.179C235.574 259.553 257.452 236.262 284.352 236.262C311.252 236.262 333.13 259.553 333.13 288.179V598.083C333.13 605.144 337.768 610.064 341.926 610.064C346.084 610.064 350.722 605.144 350.722 598.083V201.917C350.722 173.291 372.6 150 399.5 150C426.4 150 448.278 173.291 448.278 201.917V598.083C448.278 605.144 452.916 610.064 457.074 610.064C461.232 610.064 465.87 605.144 465.87 598.083V288.179C465.87 259.553 487.748 236.262 514.648 236.262C541.548 236.262 563.426 259.553 563.426 288.179V337.7C565.217 337.188 567.072 336.901 569.023 336.901C597.683 336.901 621 360.192 621 388.818V483.067C621 511.693 599.122 534.984 572.222 534.984C545.322 534.984 523.444 511.693 523.444 483.067V288.179C523.444 281.118 518.806 276.198 514.648 276.198C510.49 276.198 505.852 281.118 505.852 288.179V598.083C505.852 626.709 483.974 650 457.074 650ZM563.426 376.038V483.067C563.426 490.128 568.064 495.048 572.222 495.048C576.38 495.048 581.018 490.128 581.018 483.067V388.818C581.018 382.332 575.517 376.837 569.023 376.837C567.072 376.837 565.217 376.55 563.426 376.038ZM235.574 376.038C233.783 376.55 231.928 376.837 229.977 376.837C223.483 376.837 217.982 382.332 217.982 388.818V483.067C217.982 490.128 222.62 495.048 226.778 495.048C230.936 495.048 235.574 490.128 235.574 483.067V376.038Z" fill="#F4F4F4"/>
</g>
<defs>
<clipPath id="clip0_2253_4006">
<rect width="443" height="500" fill="white" transform="translate(178 150)"/>
</clipPath>
</defs>
</svg>
